<?xml version="1.0" encoding="UTF-8" standalone="no"?>
<!DOCTYPE svg PUBLIC "-//W3C//DTD SVG 1.1//EN" "http://www.w3.org/Graphics/SVG/1.1/DTD/svg11.dtd">
<svg xmlns="http://www.w3.org/2000/svg" version="1.1" viewBox="0.00 0.00 740.00 186.00">
<g stroke-width="2.00" fill="none" stroke-linecap="butt">
<path stroke="#b8e9a6" vector-effect="non-scaling-stroke" d="
  M 479.72 76.36
  Q 490.41 84.97 504.02 83.27
  C 513.47 82.09 520.91 76.81 521.20 66.89
  C 521.62 52.58 508.26 51.08 497.40 48.67
  C 491.50 47.36 491.52 39.66 497.54 38.64
  Q 506.21 37.17 513.54 42.77
  A 0.70 0.70 0.0 0 0 514.53 42.62
  L 519.71 35.27
  A 1.52 1.52 0.0 0 0 519.38 33.18
  Q 511.25 27.10 501.24 27.33
  C 491.54 27.55 483.00 31.36 481.56 41.72
  C 480.45 49.76 484.64 56.44 492.13 58.70
  Q 495.12 59.60 505.03 61.94
  Q 510.04 63.12 509.45 67.59
  C 509.18 69.62 507.70 71.43 505.85 71.89
  Q 494.70 74.66 486.06 67.15
  A 1.04 1.04 0.0 0 0 484.53 67.34
  L 479.46 74.52
  A 1.36 1.36 0.0 0 0 479.72 76.36"
/>
<path stroke="#b8e9a6" vector-effect="non-scaling-stroke" d="
  M 90.26 162.31
  Q 92.67 162.31 94.45 162.24
  A 0.63 0.63 0.0 0 0 95.05 161.61
  Q 94.88 144.51 95.12 116.25
  Q 95.24 101.66 102.52 89.33
  A 0.31 0.31 0.0 0 1 103.08 89.38
  C 107.17 100.79 108.20 110.03 108.15 123.41
  Q 108.09 140.05 108.16 161.53
  A 0.80 0.80 0.0 0 0 108.96 162.32
  L 116.78 162.32
  A 0.84 0.83 0.0 0 0 117.62 161.49
  Q 117.56 122.11 117.68 118.00
  Q 118.26 98.28 134.12 88.13
  Q 142.92 82.50 155.10 82.75
  A 0.24 0.24 0.0 0 0 155.35 82.51
  L 155.35 73.46
  A 0.24 0.24 0.0 0 0 155.12 73.22
  Q 129.21 73.02 115.13 93.71
  A 0.22 0.21 51.9 0 1 114.75 93.66
  L 109.53 80.36
  A 1.13 1.13 0.0 0 1 109.75 79.18
  Q 127.81 59.78 155.00 60.06
  A 0.38 0.37 0.0 0 0 155.38 59.69
  L 155.38 51.05
  A 0.37 0.37 0.0 0 0 155.02 50.68
  Q 125.56 50.25 105.08 70.42
  A 0.51 0.51 0.0 0 1 104.31 70.36
  L 97.09 60.33
  A 0.45 0.45 0.0 0 1 97.15 59.73
  Q 121.31 37.14 155.08 37.51
  A 0.29 0.29 0.0 0 0 155.37 37.22
  L 155.37 28.28
  A 0.28 0.28 0.0 0 0 155.10 28.00
  Q 117.62 27.75 90.70 52.82
  Q 90.66 52.86 90.49 52.90
  Q 90.38 52.93 90.26 52.93
  Q 90.15 52.93 90.04 52.90
  Q 89.87 52.86 89.83 52.82
  Q 62.91 27.75 25.43 27.99
  A 0.28 0.28 0.0 0 0 25.16 28.27
  L 25.16 37.21
  A 0.29 0.29 0.0 0 0 25.45 37.50
  Q 59.22 37.14 83.38 59.73
  A 0.45 0.45 0.0 0 1 83.44 60.33
  L 76.22 70.36
  A 0.51 0.51 0.0 0 1 75.45 70.42
  Q 54.97 50.25 25.51 50.67
  A 0.37 0.37 0.0 0 0 25.15 51.04
  L 25.15 59.68
  A 0.38 0.37 0.0 0 0 25.53 60.05
  Q 52.72 59.78 70.77 79.18
  A 1.13 1.13 0.0 0 1 70.99 80.36
  L 65.77 93.66
  A 0.22 0.21 -51.9 0 1 65.39 93.71
  Q 51.32 73.02 25.41 73.21
  A 0.24 0.24 0.0 0 0 25.18 73.45
  L 25.17 82.50
  A 0.24 0.24 0.0 0 0 25.42 82.74
  Q 37.60 82.49 46.40 88.13
  Q 62.26 98.28 62.84 118.00
  Q 62.96 122.11 62.90 161.49
  A 0.84 0.83 0.0 0 0 63.74 162.32
  L 71.56 162.32
  A 0.80 0.80 0.0 0 0 72.36 161.53
  Q 72.43 140.05 72.37 123.41
  C 72.32 110.03 73.35 100.79 77.44 89.38
  A 0.31 0.31 0.0 0 1 78.00 89.33
  Q 85.28 101.66 85.40 116.25
  Q 85.64 144.51 85.47 161.61
  A 0.63 0.63 0.0 0 0 86.07 162.24
  Q 87.84 162.31 90.26 162.31"
/>
<path stroke="#b8e9a6" vector-effect="non-scaling-stroke" d="
  M 262.33 58.43
  Q 268.79 69.16 276.40 81.55
  A 2.44 2.44 0.0 0 0 278.47 82.71
  L 289.38 82.71
  A 0.49 0.49 0.0 0 0 289.87 82.22
  L 289.87 28.74
  A 0.62 0.62 0.0 0 0 289.25 28.12
  L 279.11 28.12
  A 0.56 0.56 0.0 0 0 278.55 28.68
  L 278.55 62.35
  A 0.34 0.34 0.0 0 1 277.94 62.54
  Q 275.70 59.21 271.60 52.39
  Q 265.14 41.66 257.53 29.27
  A 2.44 2.44 0.0 0 0 255.46 28.11
  L 244.55 28.11
  A 0.49 0.49 0.0 0 0 244.06 28.60
  L 244.06 82.08
  A 0.62 0.62 0.0 0 0 244.68 82.70
  L 254.82 82.70
  A 0.56 0.56 0.0 0 0 255.38 82.14
  L 255.38 48.47
  A 0.34 0.34 0.0 0 1 255.99 48.28
  Q 258.23 51.61 262.33 58.43"
/>
<path stroke="#b8e9a6" vector-effect="non-scaling-stroke" d="
  M 314.8233 28.6695
  A 0.54 0.54 0.0 0 0 314.2824 28.1304
  L 303.2624 28.1497
  A 0.54 0.54 0.0 0 0 302.7233 28.6906
  L 302.8167 82.1905
  A 0.54 0.54 0.0 0 0 303.3576 82.7296
  L 314.3776 82.7103
  A 0.54 0.54 0.0 0 0 314.9167 82.1694
  L 314.8233 28.6695"
/>
<path stroke="#b8e9a6" vector-effect="non-scaling-stroke" d="
  M 473.51 82.77
  A 0.42 0.42 0.0 0 0 473.87 82.12
  L 461.17 62.46
  A 0.65 0.64 -27.9 0 1 461.46 61.52
  C 472.65 56.54 475.24 42.69 467.08 33.85
  C 463.53 30.00 457.89 28.32 452.99 28.22
  Q 445.05 28.04 430.50 28.22
  A 0.43 0.43 0.0 0 0 430.07 28.65
  L 430.07 82.22
  A 0.52 0.52 0.0 0 0 430.59 82.74
  L 441.49 82.74
  A 0.69 0.68 -0.0 0 0 442.18 82.06
  L 442.18 64.25
  A 1.01 1.00 -0.0 0 1 443.19 63.25
  L 447.21 63.25
  A 2.03 2.02 -15.6 0 1 448.94 64.22
  L 459.77 82.05
  A 1.48 1.46 74.4 0 0 461.03 82.77
  L 473.51 82.77"
/>
<path stroke="#b8e9a6" vector-effect="non-scaling-stroke" d="
  M 209.69 83.58
  C 220.00 83.59 228.23 78.38 230.85 68.08
  Q 231.76 64.51 231.76 58.50
  Q 231.78 39.86 231.75 28.79
  A 0.61 0.60 -0.0 0 0 231.14 28.19
  L 220.09 28.19
  A 0.46 0.45 0.0 0 0 219.63 28.64
  Q 219.57 44.51 219.61 59.50
  C 219.63 66.32 217.78 71.99 209.70 71.98
  C 201.62 71.98 199.77 66.31 199.80 59.49
  Q 199.85 44.50 199.81 28.63
  A 0.46 0.45 0.1 0 0 199.35 28.18
  L 188.30 28.17
  A 0.61 0.60 0.1 0 0 187.69 28.77
  Q 187.65 39.84 187.65 58.48
  Q 187.64 64.49 188.54 68.05
  C 191.15 78.36 199.39 83.57 209.69 83.58"
/>
<path stroke="#b8e9a6" vector-effect="non-scaling-stroke" d="
  M 348.91 82.76
  Q 354.48 82.76 354.84 82.74
  A 1.60 1.60 0.0 0 0 356.23 81.70
  L 375.52 28.80
  A 0.48 0.48 0.0 0 0 375.07 28.16
  L 363.52 28.16
  A 1.14 1.13 9.2 0 0 362.44 28.93
  L 349.24 67.92
  A 0.45 0.16 -75.7 0 1 349.06 68.18
  Q 348.99 68.21 348.91 68.21
  Q 348.82 68.21 348.75 68.18
  A 0.45 0.16 75.6 0 1 348.58 67.92
  L 335.35 28.94
  A 1.14 1.13 -9.3 0 0 334.27 28.17
  L 322.72 28.18
  A 0.48 0.48 0.0 0 0 322.27 28.82
  L 341.60 81.71
  A 1.60 1.60 0.0 0 0 342.99 82.74
  Q 343.34 82.76 348.91 82.76"
/>
<path stroke="#b8e9a6" vector-effect="non-scaling-stroke" d="
  M 382.68 28.91
  L 382.68 82.28
  A 0.43 0.43 0.0 0 0 383.11 82.71
  L 418.95 82.73
  A 0.55 0.55 0.0 0 0 419.50 82.18
  L 419.49 72.52
  A 0.47 0.47 0.0 0 0 419.03 72.05
  L 395.33 72.01
  A 0.54 0.54 0.0 0 1 394.79 71.48
  L 394.80 60.64
  A 0.40 0.39 -90.0 0 1 395.19 60.24
  L 414.79 60.21
  A 0.55 0.55 0.0 0 0 415.33 59.67
  L 415.34 50.46
  A 0.45 0.45 0.0 0 0 414.89 50.01
  L 395.21 49.98
  A 0.43 0.43 0.0 0 1 394.78 49.55
  L 394.82 39.22
  A 0.36 0.35 0.0 0 1 395.18 38.86
  L 419.10 38.88
  A 0.43 0.42 -90.0 0 0 419.52 38.45
  L 419.53 28.74
  A 0.55 0.55 0.0 0 0 418.97 28.19
  L 383.40 28.19
  A 0.73 0.73 0.0 0 0 382.68 28.91"
/>
<path stroke="#b8e9a6" vector-effect="non-scaling-stroke" d="
  M 543.30 28.83
  A 0.66 0.66 0.0 0 0 542.64 28.17
  L 531.86 28.17
  A 0.66 0.66 0.0 0 0 531.20 28.83
  L 531.20 82.05
  A 0.66 0.66 0.0 0 0 531.86 82.71
  L 542.64 82.71
  A 0.66 0.66 0.0 0 0 543.30 82.05
  L 543.30 28.83"
/>
<path stroke="#b8e9a6" vector-effect="non-scaling-stroke" d="
  M 556.16 28.85
  L 556.34 82.15
  A 0.69 0.69 0.0 0 0 557.04 82.84
  L 577.32 82.77
  A 25.97 25.93 -0.2 0 0 603.19 56.75
  L 603.18 53.93
  A 25.97 25.93 -0.2 0 0 577.12 28.09
  L 556.84 28.16
  A 0.69 0.69 0.0 0 0 556.16 28.85"
/>
<path stroke="#b8e9a6" vector-effect="non-scaling-stroke" d="
  M 627.39 28.18
  A 0.64 0.64 0.0 0 0 626.79 28.59
  L 605.88 81.90
  A 0.64 0.64 0.0 0 0 606.48 82.77
  L 617.27 82.77
  A 0.64 0.64 0.0 0 0 617.87 82.36
  L 621.90 72.08
  A 0.64 0.64 0.0 0 1 622.50 71.67
  L 643.02 71.67
  A 0.64 0.64 0.0 0 1 643.62 72.08
  L 647.64 82.35
  A 0.64 0.64 0.0 0 0 648.24 82.76
  L 659.58 82.76
  A 0.64 0.64 0.0 0 0 660.18 81.89
  L 639.28 28.59
  A 0.64 0.64 0.0 0 0 638.68 28.18
  L 627.39 28.18"
/>
<path stroke="#b8e9a6" vector-effect="non-scaling-stroke" d="
  M 667.43 28.70
  L 667.33 82.20
  A 0.56 0.56 0.0 0 0 667.89 82.76
  L 688.29 82.80
  A 25.84 25.58 0.1 0 0 714.18 57.26
  L 714.18 53.80
  A 25.84 25.58 0.1 0 0 688.39 28.18
  L 667.99 28.14
  A 0.56 0.56 0.0 0 0 667.43 28.70"
/>
<path stroke="#83a9a5" vector-effect="non-scaling-stroke" d="
  M 293.85 133.93
  C 293.86 144.85 298.91 155.47 308.72 160.31
  C 321.80 166.76 336.50 162.92 343.84 149.78
  A 0.90 0.90 0.0 0 0 343.57 148.59
  L 334.47 142.16
  A 0.59 0.58 29.8 0 0 333.61 142.39
  C 331.00 147.96 326.16 151.75 319.47 150.98
  C 310.38 149.92 306.87 142.23 306.86 133.91
  C 306.85 125.60 310.35 117.90 319.44 116.83
  C 326.13 116.04 330.97 119.82 333.59 125.39
  A 0.59 0.58 -29.9 0 0 334.45 125.61
  L 343.54 119.17
  A 0.90 0.90 0.0 0 0 343.81 117.98
  C 336.45 104.85 321.74 101.04 308.67 107.51
  C 298.87 112.37 293.84 123.01 293.85 133.93"
/>
<path stroke="#83a9a5" vector-effect="non-scaling-stroke" d="
  M 655.15 133.90
  C 655.14 150.14 665.79 163.28 682.68 163.29
  C 699.56 163.30 710.22 150.17 710.23 133.93
  C 710.24 117.69 699.59 104.55 682.71 104.54
  C 665.83 104.53 655.16 117.66 655.15 133.90"
/>
<path stroke="#83a9a5" vector-effect="non-scaling-stroke" d="
  M 448.53 105.89
  A 0.48 0.48 0.0 0 0 448.05 105.41
  L 436.31 105.41
  A 0.48 0.48 0.0 0 0 435.83 105.89
  L 435.83 161.93
  A 0.48 0.48 0.0 0 0 436.31 162.41
  L 448.05 162.41
  A 0.48 0.48 0.0 0 0 448.53 161.93
  L 448.53 105.89"
/>
<path stroke="#83a9a5" vector-effect="non-scaling-stroke" d="
  M 210.95 162.42
  Q 213.93 162.42 216.83 162.37
  A 0.48 0.48 0.0 0 0 217.30 161.89
  L 217.30 117.44
  A 0.63 0.62 -0.0 0 1 217.93 116.82
  L 233.60 116.82
  A 0.72 0.72 0.0 0 0 234.32 116.10
  L 234.32 105.83
  A 0.39 0.38 89.9 0 0 233.94 105.44
  Q 233.45 105.44 210.93 105.45
  Q 188.40 105.45 187.92 105.46
  A 0.39 0.38 -89.9 0 0 187.54 105.85
  L 187.54 116.12
  A 0.72 0.72 0.0 0 0 188.27 116.84
  L 203.94 116.83
  A 0.63 0.62 -0.0 0 1 204.57 117.44
  L 204.60 161.89
  A 0.48 0.48 0.0 0 0 205.07 162.38
  Q 207.97 162.42 210.95 162.42"
/>
<path stroke="#83a9a5" vector-effect="non-scaling-stroke" d="
  M 245.75 106.20
  L 245.77 161.94
  A 0.45 0.45 0.0 0 0 246.22 162.39
  L 283.66 162.40
  A 0.57 0.57 0.0 0 0 284.23 161.83
  L 284.22 151.74
  A 0.49 0.49 0.0 0 0 283.73 151.25
  L 258.98 151.22
  A 0.56 0.56 0.0 0 1 258.42 150.66
  L 258.43 139.34
  A 0.42 0.41 -90.0 0 1 258.84 138.92
  L 279.30 138.89
  A 0.57 0.57 0.0 0 0 279.87 138.32
  L 279.88 128.69
  A 0.47 0.47 0.0 0 0 279.41 128.22
  L 258.85 128.20
  A 0.45 0.45 0.0 0 1 258.40 127.75
  L 258.44 116.96
  A 0.38 0.37 0.0 0 1 258.82 116.59
  L 283.80 116.60
  A 0.45 0.44 -90.0 0 0 284.24 116.15
  L 284.24 106.01
  A 0.58 0.58 0.0 0 0 283.66 105.43
  L 246.51 105.44
  A 0.76 0.76 0.0 0 0 245.75 106.20"
/>
<path stroke="#83a9a5" vector-effect="non-scaling-stroke" d="
  M 387.82 162.83
  Q 389.72 162.83 390.46 162.82
  A 1.28 1.28 0.0 0 0 391.65 161.97
  L 405.32 124.49
  A 0.14 0.14 0.0 0 1 405.59 124.52
  L 410.51 162.04
  A 0.46 0.45 86.4 0 0 410.96 162.44
  L 422.09 162.44
  A 0.46 0.46 0.0 0 0 422.55 161.92
  L 415.18 105.79
  A 0.43 0.42 86.1 0 0 414.76 105.42
  L 401.69 105.42
  A 0.97 0.95 -80.0 0 0 400.79 106.06
  Q 398.37 112.71 388.10 140.10
  Q 388.04 140.26 387.84 140.26
  Q 387.63 140.26 387.57 140.10
  Q 377.33 112.70 374.92 106.05
  A 0.97 0.95 80.0 0 0 374.02 105.40
  L 360.95 105.39
  A 0.43 0.42 -86.1 0 0 360.53 105.76
  L 353.10 161.88
  A 0.46 0.46 0.0 0 0 353.56 162.40
  L 364.69 162.41
  A 0.46 0.45 -86.3 0 0 365.14 162.02
  L 370.10 124.50
  A 0.14 0.14 0.0 0 1 370.37 124.47
  L 384.00 161.97
  A 1.28 1.28 0.0 0 0 385.19 162.82
  Q 385.93 162.83 387.82 162.83"
/>
<path stroke="#83a9a5" vector-effect="non-scaling-stroke" d="
  M 500.92 162.40
  A 0.41 0.41 0.0 0 0 501.33 161.99
  L 501.33 151.42
  A 0.41 0.41 0.0 0 0 500.92 151.01
  L 477.94 151.01
  A 0.41 0.41 0.0 0 1 477.53 150.60
  L 477.53 105.84
  A 0.41 0.41 0.0 0 0 477.12 105.43
  L 465.23 105.43
  A 0.41 0.41 0.0 0 0 464.82 105.84
  L 464.82 161.99
  A 0.41 0.41 0.0 0 0 465.23 162.40
  L 500.92 162.40"
/>
<path stroke="#83a9a5" vector-effect="non-scaling-stroke" d="
  M 551.21 105.92
  A 0.50 0.50 0.0 0 0 550.71 105.42
  L 513.22 105.42
  A 0.50 0.50 0.0 0 0 512.72 105.92
  L 512.72 161.92
  A 0.50 0.50 0.0 0 0 513.22 162.42
  L 550.72 162.42
  A 0.50 0.50 0.0 0 0 551.22 161.92
  L 551.22 151.75
  A 0.50 0.50 0.0 0 0 550.72 151.25
  L 525.89 151.25
  A 0.50 0.50 0.0 0 1 525.39 150.75
  L 525.39 139.41
  A 0.50 0.50 0.0 0 1 525.89 138.91
  L 546.35 138.91
  A 0.50 0.50 0.0 0 0 546.85 138.41
  L 546.85 128.72
  A 0.50 0.50 0.0 0 0 546.35 128.22
  L 525.87 128.22
  A 0.50 0.50 0.0 0 1 525.37 127.72
  L 525.37 117.09
  A 0.50 0.50 0.0 0 1 525.87 116.59
  L 550.71 116.59
  A 0.50 0.50 0.0 0 0 551.21 116.09
  L 551.21 105.92"
/>
<path stroke="#83a9a5" vector-effect="non-scaling-stroke" d="
  M 601.34 105.42
  A 0.34 0.34 0.0 0 0 601.00 105.76
  L 601.00 141.26
  A 0.34 0.34 0.0 0 1 600.37 141.44
  L 578.60 105.58
  A 0.34 0.34 0.0 0 0 578.31 105.42
  L 565.40 105.42
  A 0.34 0.34 0.0 0 0 565.06 105.76
  L 565.06 162.08
  A 0.34 0.34 0.0 0 0 565.40 162.42
  L 576.51 162.42
  A 0.34 0.34 0.0 0 0 576.85 162.08
  L 576.85 126.17
  A 0.34 0.34 0.0 0 1 577.48 125.99
  L 599.50 162.26
  A 0.34 0.34 0.0 0 0 599.79 162.42
  L 612.54 162.42
  A 0.34 0.34 0.0 0 0 612.88 162.08
  L 612.88 105.76
  A 0.34 0.34 0.0 0 0 612.54 105.42
  L 601.34 105.42"
/>
<path stroke="#83a9a5" vector-effect="non-scaling-stroke" d="
  M 641.80 105.86
  A 0.46 0.46 0.0 0 0 641.34 105.40
  L 629.56 105.40
  A 0.46 0.46 0.0 0 0 629.10 105.86
  L 629.10 161.96
  A 0.46 0.46 0.0 0 0 629.56 162.42
  L 641.34 162.42
  A 0.46 0.46 0.0 0 0 641.80 161.96
  L 641.80 105.86"
/>
<path stroke="#b8e9a6" vector-effect="non-scaling-stroke" d="
  M 90.30 92.12
  Q 90.39 92.12 90.47 92.07
  Q 90.62 91.98 90.63 91.95
  Q 93.79 84.77 97.83 78.99
  A 0.71 0.70 -43.2 0 0 97.86 78.24
  Q 94.48 72.37 90.44 67.38
  A 0.16 0.03 2.5 0 0 90.31 67.35
  Q 90.29 67.35 90.27 67.35
  Q 90.24 67.35 90.22 67.35
  A 0.16 0.03 -2.6 0 0 90.09 67.38
  Q 86.06 72.38 82.70 78.26
  A 0.71 0.70 43.1 0 0 82.73 79.01
  Q 86.79 84.78 89.97 91.95
  Q 89.98 91.98 90.13 92.07
  Q 90.21 92.12 90.30 92.12"
/>
<path stroke="#b8e9a6" vector-effect="non-scaling-stroke" d="
  M 442.19 39.53
  L 442.21 52.63
  A 0.77 0.77 0.0 0 0 442.98 53.39
  L 452.44 53.38
  A 7.17 6.68 -0.1 0 0 459.60 46.68
  L 459.60 45.40
  A 7.17 6.68 -0.1 0 0 452.42 38.74
  L 442.96 38.75
  A 0.77 0.77 0.0 0 0 442.19 39.53"
/>
<path stroke="#b8e9a6" vector-effect="non-scaling-stroke" d="
  M 568.31 39.79
  L 568.37 71.23
  A 0.73 0.73 0.0 0 0 569.10 71.96
  L 576.33 71.95
  A 14.66 14.52 89.9 0 0 590.82 57.26
  L 590.82 53.68
  A 14.66 14.52 89.9 0 0 576.27 39.05
  L 569.04 39.06
  A 0.73 0.73 0.0 0 0 568.31 39.79"
/>
<path stroke="#b8e9a6" vector-effect="non-scaling-stroke" d="
  M 625.85 60.83
  A 0.30 0.30 0.0 0 0 626.13 61.23
  L 639.41 61.21
  A 0.30 0.30 0.0 0 0 639.69 60.81
  L 633.02 42.95
  A 0.30 0.30 0.0 0 0 632.46 42.95
  L 625.85 60.83"
/>
<path stroke="#b8e9a6" vector-effect="non-scaling-stroke" d="
  M 679.40 39.81
  L 679.46 71.17
  A 0.79 0.79 0.0 0 0 680.25 71.96
  L 687.32 71.95
  A 14.56 14.53 -0.1 0 0 701.85 57.39
  L 701.85 53.51
  A 14.56 14.53 -0.1 0 0 687.26 39.01
  L 680.19 39.02
  A 0.79 0.79 0.0 0 0 679.40 39.81"
/>
<path stroke="#83a9a5" vector-effect="non-scaling-stroke" d="
  M 668.07 133.91
  C 668.07 143.08 672.54 151.16 682.70 151.16
  C 692.86 151.15 697.33 143.07 697.32 133.90
  C 697.32 124.73 692.86 116.65 682.70 116.65
  C 672.53 116.66 668.07 124.74 668.07 133.91"
/>
</g>
<path fill="#ffffff" d="
  M 740.00 0.00
  L 740.00 186.00
  L 0.00 186.00
  L 0.00 0.00
  L 740.00 0.00
  Z
  M 479.72 76.36
  Q 490.41 84.97 504.02 83.27
  C 513.47 82.09 520.91 76.81 521.20 66.89
  C 521.62 52.58 508.26 51.08 497.40 48.67
  C 491.50 47.36 491.52 39.66 497.54 38.64
  Q 506.21 37.17 513.54 42.77
  A 0.70 0.70 0.0 0 0 514.53 42.62
  L 519.71 35.27
  A 1.52 1.52 0.0 0 0 519.38 33.18
  Q 511.25 27.10 501.24 27.33
  C 491.54 27.55 483.00 31.36 481.56 41.72
  C 480.45 49.76 484.64 56.44 492.13 58.70
  Q 495.12 59.60 505.03 61.94
  Q 510.04 63.12 509.45 67.59
  C 509.18 69.62 507.70 71.43 505.85 71.89
  Q 494.70 74.66 486.06 67.15
  A 1.04 1.04 0.0 0 0 484.53 67.34
  L 479.46 74.52
  A 1.36 1.36 0.0 0 0 479.72 76.36
  Z
  M 90.26 162.31
  Q 92.67 162.31 94.45 162.24
  A 0.63 0.63 0.0 0 0 95.05 161.61
  Q 94.88 144.51 95.12 116.25
  Q 95.24 101.66 102.52 89.33
  A 0.31 0.31 0.0 0 1 103.08 89.38
  C 107.17 100.79 108.20 110.03 108.15 123.41
  Q 108.09 140.05 108.16 161.53
  A 0.80 0.80 0.0 0 0 108.96 162.32
  L 116.78 162.32
  A 0.84 0.83 0.0 0 0 117.62 161.49
  Q 117.56 122.11 117.68 118.00
  Q 118.26 98.28 134.12 88.13
  Q 142.92 82.50 155.10 82.75
  A 0.24 0.24 0.0 0 0 155.35 82.51
  L 155.35 73.46
  A 0.24 0.24 0.0 0 0 155.12 73.22
  Q 129.21 73.02 115.13 93.71
  A 0.22 0.21 51.9 0 1 114.75 93.66
  L 109.53 80.36
  A 1.13 1.13 0.0 0 1 109.75 79.18
  Q 127.81 59.78 155.00 60.06
  A 0.38 0.37 0.0 0 0 155.38 59.69
  L 155.38 51.05
  A 0.37 0.37 0.0 0 0 155.02 50.68
  Q 125.56 50.25 105.08 70.42
  A 0.51 0.51 0.0 0 1 104.31 70.36
  L 97.09 60.33
  A 0.45 0.45 0.0 0 1 97.15 59.73
  Q 121.31 37.14 155.08 37.51
  A 0.29 0.29 0.0 0 0 155.37 37.22
  L 155.37 28.28
  A 0.28 0.28 0.0 0 0 155.10 28.00
  Q 117.62 27.75 90.70 52.82
  Q 90.66 52.86 90.49 52.90
  Q 90.38 52.93 90.26 52.93
  Q 90.15 52.93 90.04 52.90
  Q 89.87 52.86 89.83 52.82
  Q 62.91 27.75 25.43 27.99
  A 0.28 0.28 0.0 0 0 25.16 28.27
  L 25.16 37.21
  A 0.29 0.29 0.0 0 0 25.45 37.50
  Q 59.22 37.14 83.38 59.73
  A 0.45 0.45 0.0 0 1 83.44 60.33
  L 76.22 70.36
  A 0.51 0.51 0.0 0 1 75.45 70.42
  Q 54.97 50.25 25.51 50.67
  A 0.37 0.37 0.0 0 0 25.15 51.04
  L 25.15 59.68
  A 0.38 0.37 0.0 0 0 25.53 60.05
  Q 52.72 59.78 70.77 79.18
  A 1.13 1.13 0.0 0 1 70.99 80.36
  L 65.77 93.66
  A 0.22 0.21 -51.9 0 1 65.39 93.71
  Q 51.32 73.02 25.41 73.21
  A 0.24 0.24 0.0 0 0 25.18 73.45
  L 25.17 82.50
  A 0.24 0.24 0.0 0 0 25.42 82.74
  Q 37.60 82.49 46.40 88.13
  Q 62.26 98.28 62.84 118.00
  Q 62.96 122.11 62.90 161.49
  A 0.84 0.83 0.0 0 0 63.74 162.32
  L 71.56 162.32
  A 0.80 0.80 0.0 0 0 72.36 161.53
  Q 72.43 140.05 72.37 123.41
  C 72.32 110.03 73.35 100.79 77.44 89.38
  A 0.31 0.31 0.0 0 1 78.00 89.33
  Q 85.28 101.66 85.40 116.25
  Q 85.64 144.51 85.47 161.61
  A 0.63 0.63 0.0 0 0 86.07 162.24
  Q 87.84 162.31 90.26 162.31
  Z
  M 262.33 58.43
  Q 268.79 69.16 276.40 81.55
  A 2.44 2.44 0.0 0 0 278.47 82.71
  L 289.38 82.71
  A 0.49 0.49 0.0 0 0 289.87 82.22
  L 289.87 28.74
  A 0.62 0.62 0.0 0 0 289.25 28.12
  L 279.11 28.12
  A 0.56 0.56 0.0 0 0 278.55 28.68
  L 278.55 62.35
  A 0.34 0.34 0.0 0 1 277.94 62.54
  Q 275.70 59.21 271.60 52.39
  Q 265.14 41.66 257.53 29.27
  A 2.44 2.44 0.0 0 0 255.46 28.11
  L 244.55 28.11
  A 0.49 0.49 0.0 0 0 244.06 28.60
  L 244.06 82.08
  A 0.62 0.62 0.0 0 0 244.68 82.70
  L 254.82 82.70
  A 0.56 0.56 0.0 0 0 255.38 82.14
  L 255.38 48.47
  A 0.34 0.34 0.0 0 1 255.99 48.28
  Q 258.23 51.61 262.33 58.43
  Z
  M 314.8233 28.6695
  A 0.54 0.54 0.0 0 0 314.2824 28.1304
  L 303.2624 28.1497
  A 0.54 0.54 0.0 0 0 302.7233 28.6906
  L 302.8167 82.1905
  A 0.54 0.54 0.0 0 0 303.3576 82.7296
  L 314.3776 82.7103
  A 0.54 0.54 0.0 0 0 314.9167 82.1694
  L 314.8233 28.6695
  Z
  M 473.51 82.77
  A 0.42 0.42 0.0 0 0 473.87 82.12
  L 461.17 62.46
  A 0.65 0.64 -27.9 0 1 461.46 61.52
  C 472.65 56.54 475.24 42.69 467.08 33.85
  C 463.53 30.00 457.89 28.32 452.99 28.22
  Q 445.05 28.04 430.50 28.22
  A 0.43 0.43 0.0 0 0 430.07 28.65
  L 430.07 82.22
  A 0.52 0.52 0.0 0 0 430.59 82.74
  L 441.49 82.74
  A 0.69 0.68 -0.0 0 0 442.18 82.06
  L 442.18 64.25
  A 1.01 1.00 -0.0 0 1 443.19 63.25
  L 447.21 63.25
  A 2.03 2.02 -15.6 0 1 448.94 64.22
  L 459.77 82.05
  A 1.48 1.46 74.4 0 0 461.03 82.77
  L 473.51 82.77
  Z
  M 209.69 83.58
  C 220.00 83.59 228.23 78.38 230.85 68.08
  Q 231.76 64.51 231.76 58.50
  Q 231.78 39.86 231.75 28.79
  A 0.61 0.60 -0.0 0 0 231.14 28.19
  L 220.09 28.19
  A 0.46 0.45 0.0 0 0 219.63 28.64
  Q 219.57 44.51 219.61 59.50
  C 219.63 66.32 217.78 71.99 209.70 71.98
  C 201.62 71.98 199.77 66.31 199.80 59.49
  Q 199.85 44.50 199.81 28.63
  A 0.46 0.45 0.1 0 0 199.35 28.18
  L 188.30 28.17
  A 0.61 0.60 0.1 0 0 187.69 28.77
  Q 187.65 39.84 187.65 58.48
  Q 187.64 64.49 188.54 68.05
  C 191.15 78.36 199.39 83.57 209.69 83.58
  Z
  M 348.91 82.76
  Q 354.48 82.76 354.84 82.74
  A 1.60 1.60 0.0 0 0 356.23 81.70
  L 375.52 28.80
  A 0.48 0.48 0.0 0 0 375.07 28.16
  L 363.52 28.16
  A 1.14 1.13 9.2 0 0 362.44 28.93
  L 349.24 67.92
  A 0.45 0.16 -75.7 0 1 349.06 68.18
  Q 348.99 68.21 348.91 68.21
  Q 348.82 68.21 348.75 68.18
  A 0.45 0.16 75.6 0 1 348.58 67.92
  L 335.35 28.94
  A 1.14 1.13 -9.3 0 0 334.27 28.17
  L 322.72 28.18
  A 0.48 0.48 0.0 0 0 322.27 28.82
  L 341.60 81.71
  A 1.60 1.60 0.0 0 0 342.99 82.74
  Q 343.34 82.76 348.91 82.76
  Z
  M 382.68 28.91
  L 382.68 82.28
  A 0.43 0.43 0.0 0 0 383.11 82.71
  L 418.95 82.73
  A 0.55 0.55 0.0 0 0 419.50 82.18
  L 419.49 72.52
  A 0.47 0.47 0.0 0 0 419.03 72.05
  L 395.33 72.01
  A 0.54 0.54 0.0 0 1 394.79 71.48
  L 394.80 60.64
  A 0.40 0.39 -90.0 0 1 395.19 60.24
  L 414.79 60.21
  A 0.55 0.55 0.0 0 0 415.33 59.67
  L 415.34 50.46
  A 0.45 0.45 0.0 0 0 414.89 50.01
  L 395.21 49.98
  A 0.43 0.43 0.0 0 1 394.78 49.55
  L 394.82 39.22
  A 0.36 0.35 0.0 0 1 395.18 38.86
  L 419.10 38.88
  A 0.43 0.42 -90.0 0 0 419.52 38.45
  L 419.53 28.74
  A 0.55 0.55 0.0 0 0 418.97 28.19
  L 383.40 28.19
  A 0.73 0.73 0.0 0 0 382.68 28.91
  Z
  M 543.30 28.83
  A 0.66 0.66 0.0 0 0 542.64 28.17
  L 531.86 28.17
  A 0.66 0.66 0.0 0 0 531.20 28.83
  L 531.20 82.05
  A 0.66 0.66 0.0 0 0 531.86 82.71
  L 542.64 82.71
  A 0.66 0.66 0.0 0 0 543.30 82.05
  L 543.30 28.83
  Z
  M 556.16 28.85
  L 556.34 82.15
  A 0.69 0.69 0.0 0 0 557.04 82.84
  L 577.32 82.77
  A 25.97 25.93 -0.2 0 0 603.19 56.75
  L 603.18 53.93
  A 25.97 25.93 -0.2 0 0 577.12 28.09
  L 556.84 28.16
  A 0.69 0.69 0.0 0 0 556.16 28.85
  Z
  M 627.39 28.18
  A 0.64 0.64 0.0 0 0 626.79 28.59
  L 605.88 81.90
  A 0.64 0.64 0.0 0 0 606.48 82.77
  L 617.27 82.77
  A 0.64 0.64 0.0 0 0 617.87 82.36
  L 621.90 72.08
  A 0.64 0.64 0.0 0 1 622.50 71.67
  L 643.02 71.67
  A 0.64 0.64 0.0 0 1 643.62 72.08
  L 647.64 82.35
  A 0.64 0.64 0.0 0 0 648.24 82.76
  L 659.58 82.76
  A 0.64 0.64 0.0 0 0 660.18 81.89
  L 639.28 28.59
  A 0.64 0.64 0.0 0 0 638.68 28.18
  L 627.39 28.18
  Z
  M 667.43 28.70
  L 667.33 82.20
  A 0.56 0.56 0.0 0 0 667.89 82.76
  L 688.29 82.80
  A 25.84 25.58 0.1 0 0 714.18 57.26
  L 714.18 53.80
  A 25.84 25.58 0.1 0 0 688.39 28.18
  L 667.99 28.14
  A 0.56 0.56 0.0 0 0 667.43 28.70
  Z
  M 293.85 133.93
  C 293.86 144.85 298.91 155.47 308.72 160.31
  C 321.80 166.76 336.50 162.92 343.84 149.78
  A 0.90 0.90 0.0 0 0 343.57 148.59
  L 334.47 142.16
  A 0.59 0.58 29.8 0 0 333.61 142.39
  C 331.00 147.96 326.16 151.75 319.47 150.98
  C 310.38 149.92 306.87 142.23 306.86 133.91
  C 306.85 125.60 310.35 117.90 319.44 116.83
  C 326.13 116.04 330.97 119.82 333.59 125.39
  A 0.59 0.58 -29.9 0 0 334.45 125.61
  L 343.54 119.17
  A 0.90 0.90 0.0 0 0 343.81 117.98
  C 336.45 104.85 321.74 101.04 308.67 107.51
  C 298.87 112.37 293.84 123.01 293.85 133.93
  Z
  M 655.15 133.90
  C 655.14 150.14 665.79 163.28 682.68 163.29
  C 699.56 163.30 710.22 150.17 710.23 133.93
  C 710.24 117.69 699.59 104.55 682.71 104.54
  C 665.83 104.53 655.16 117.66 655.15 133.90
  Z
  M 448.53 105.89
  A 0.48 0.48 0.0 0 0 448.05 105.41
  L 436.31 105.41
  A 0.48 0.48 0.0 0 0 435.83 105.89
  L 435.83 161.93
  A 0.48 0.48 0.0 0 0 436.31 162.41
  L 448.05 162.41
  A 0.48 0.48 0.0 0 0 448.53 161.93
  L 448.53 105.89
  Z
  M 210.95 162.42
  Q 213.93 162.42 216.83 162.37
  A 0.48 0.48 0.0 0 0 217.30 161.89
  L 217.30 117.44
  A 0.63 0.62 -0.0 0 1 217.93 116.82
  L 233.60 116.82
  A 0.72 0.72 0.0 0 0 234.32 116.10
  L 234.32 105.83
  A 0.39 0.38 89.9 0 0 233.94 105.44
  Q 233.45 105.44 210.93 105.45
  Q 188.40 105.45 187.92 105.46
  A 0.39 0.38 -89.9 0 0 187.54 105.85
  L 187.54 116.12
  A 0.72 0.72 0.0 0 0 188.27 116.84
  L 203.94 116.83
  A 0.63 0.62 -0.0 0 1 204.57 117.44
  L 204.60 161.89
  A 0.48 0.48 0.0 0 0 205.07 162.38
  Q 207.97 162.42 210.95 162.42
  Z
  M 245.75 106.20
  L 245.77 161.94
  A 0.45 0.45 0.0 0 0 246.22 162.39
  L 283.66 162.40
  A 0.57 0.57 0.0 0 0 284.23 161.83
  L 284.22 151.74
  A 0.49 0.49 0.0 0 0 283.73 151.25
  L 258.98 151.22
  A 0.56 0.56 0.0 0 1 258.42 150.66
  L 258.43 139.34
  A 0.42 0.41 -90.0 0 1 258.84 138.92
  L 279.30 138.89
  A 0.57 0.57 0.0 0 0 279.87 138.32
  L 279.88 128.69
  A 0.47 0.47 0.0 0 0 279.41 128.22
  L 258.85 128.20
  A 0.45 0.45 0.0 0 1 258.40 127.75
  L 258.44 116.96
  A 0.38 0.37 0.0 0 1 258.82 116.59
  L 283.80 116.60
  A 0.45 0.44 -90.0 0 0 284.24 116.15
  L 284.24 106.01
  A 0.58 0.58 0.0 0 0 283.66 105.43
  L 246.51 105.44
  A 0.76 0.76 0.0 0 0 245.75 106.20
  Z
  M 387.82 162.83
  Q 389.72 162.83 390.46 162.82
  A 1.28 1.28 0.0 0 0 391.65 161.97
  L 405.32 124.49
  A 0.14 0.14 0.0 0 1 405.59 124.52
  L 410.51 162.04
  A 0.46 0.45 86.4 0 0 410.96 162.44
  L 422.09 162.44
  A 0.46 0.46 0.0 0 0 422.55 161.92
  L 415.18 105.79
  A 0.43 0.42 86.1 0 0 414.76 105.42
  L 401.69 105.42
  A 0.97 0.95 -80.0 0 0 400.79 106.06
  Q 398.37 112.71 388.10 140.10
  Q 388.04 140.26 387.84 140.26
  Q 387.63 140.26 387.57 140.10
  Q 377.33 112.70 374.92 106.05
  A 0.97 0.95 80.0 0 0 374.02 105.40
  L 360.95 105.39
  A 0.43 0.42 -86.1 0 0 360.53 105.76
  L 353.10 161.88
  A 0.46 0.46 0.0 0 0 353.56 162.40
  L 364.69 162.41
  A 0.46 0.45 -86.3 0 0 365.14 162.02
  L 370.10 124.50
  A 0.14 0.14 0.0 0 1 370.37 124.47
  L 384.00 161.97
  A 1.28 1.28 0.0 0 0 385.19 162.82
  Q 385.93 162.83 387.82 162.83
  Z
  M 500.92 162.40
  A 0.41 0.41 0.0 0 0 501.33 161.99
  L 501.33 151.42
  A 0.41 0.41 0.0 0 0 500.92 151.01
  L 477.94 151.01
  A 0.41 0.41 0.0 0 1 477.53 150.60
  L 477.53 105.84
  A 0.41 0.41 0.0 0 0 477.12 105.43
  L 465.23 105.43
  A 0.41 0.41 0.0 0 0 464.82 105.84
  L 464.82 161.99
  A 0.41 0.41 0.0 0 0 465.23 162.40
  L 500.92 162.40
  Z
  M 551.21 105.92
  A 0.50 0.50 0.0 0 0 550.71 105.42
  L 513.22 105.42
  A 0.50 0.50 0.0 0 0 512.72 105.92
  L 512.72 161.92
  A 0.50 0.50 0.0 0 0 513.22 162.42
  L 550.72 162.42
  A 0.50 0.50 0.0 0 0 551.22 161.92
  L 551.22 151.75
  A 0.50 0.50 0.0 0 0 550.72 151.25
  L 525.89 151.25
  A 0.50 0.50 0.0 0 1 525.39 150.75
  L 525.39 139.41
  A 0.50 0.50 0.0 0 1 525.89 138.91
  L 546.35 138.91
  A 0.50 0.50 0.0 0 0 546.85 138.41
  L 546.85 128.72
  A 0.50 0.50 0.0 0 0 546.35 128.22
  L 525.87 128.22
  A 0.50 0.50 0.0 0 1 525.37 127.72
  L 525.37 117.09
  A 0.50 0.50 0.0 0 1 525.87 116.59
  L 550.71 116.59
  A 0.50 0.50 0.0 0 0 551.21 116.09
  L 551.21 105.92
  Z
  M 601.34 105.42
  A 0.34 0.34 0.0 0 0 601.00 105.76
  L 601.00 141.26
  A 0.34 0.34 0.0 0 1 600.37 141.44
  L 578.60 105.58
  A 0.34 0.34 0.0 0 0 578.31 105.42
  L 565.40 105.42
  A 0.34 0.34 0.0 0 0 565.06 105.76
  L 565.06 162.08
  A 0.34 0.34 0.0 0 0 565.40 162.42
  L 576.51 162.42
  A 0.34 0.34 0.0 0 0 576.85 162.08
  L 576.85 126.17
  A 0.34 0.34 0.0 0 1 577.48 125.99
  L 599.50 162.26
  A 0.34 0.34 0.0 0 0 599.79 162.42
  L 612.54 162.42
  A 0.34 0.34 0.0 0 0 612.88 162.08
  L 612.88 105.76
  A 0.34 0.34 0.0 0 0 612.54 105.42
  L 601.34 105.42
  Z
  M 641.80 105.86
  A 0.46 0.46 0.0 0 0 641.34 105.40
  L 629.56 105.40
  A 0.46 0.46 0.0 0 0 629.10 105.86
  L 629.10 161.96
  A 0.46 0.46 0.0 0 0 629.56 162.42
  L 641.34 162.42
  A 0.46 0.46 0.0 0 0 641.80 161.96
  L 641.80 105.86
  Z"
/>
<path fill="#71d34c" d="
  M 479.72 76.36
  A 1.36 1.36 0.0 0 1 479.46 74.52
  L 484.53 67.34
  A 1.04 1.04 0.0 0 1 486.06 67.15
  Q 494.70 74.66 505.85 71.89
  C 507.70 71.43 509.18 69.62 509.45 67.59
  Q 510.04 63.12 505.03 61.94
  Q 495.12 59.60 492.13 58.70
  C 484.64 56.44 480.45 49.76 481.56 41.72
  C 483.00 31.36 491.54 27.55 501.24 27.33
  Q 511.25 27.10 519.38 33.18
  A 1.52 1.52 0.0 0 1 519.71 35.27
  L 514.53 42.62
  A 0.70 0.70 0.0 0 1 513.54 42.77
  Q 506.21 37.17 497.54 38.64
  C 491.52 39.66 491.50 47.36 497.40 48.67
  C 508.26 51.08 521.62 52.58 521.20 66.89
  C 520.91 76.81 513.47 82.09 504.02 83.27
  Q 490.41 84.97 479.72 76.36
  Z"
/>
<path fill="#71d34c" d="
  M 90.26 52.93
  Q 90.38 52.93 90.49 52.90
  Q 90.66 52.86 90.70 52.82
  Q 117.62 27.75 155.10 28.00
  A 0.28 0.28 0.0 0 1 155.37 28.28
  L 155.37 37.22
  A 0.29 0.29 0.0 0 1 155.08 37.51
  Q 121.31 37.14 97.15 59.73
  A 0.45 0.45 0.0 0 0 97.09 60.33
  L 104.31 70.36
  A 0.51 0.51 0.0 0 0 105.08 70.42
  Q 125.56 50.25 155.02 50.68
  A 0.37 0.37 0.0 0 1 155.38 51.05
  L 155.38 59.69
  A 0.38 0.37 -0.0 0 1 155.00 60.06
  Q 127.81 59.78 109.75 79.18
  A 1.13 1.13 0.0 0 0 109.53 80.36
  L 114.75 93.66
  A 0.22 0.21 51.9 0 0 115.13 93.71
  Q 129.21 73.02 155.12 73.22
  A 0.24 0.24 0.0 0 1 155.35 73.46
  L 155.35 82.51
  A 0.24 0.24 0.0 0 1 155.10 82.75
  Q 142.92 82.50 134.12 88.13
  Q 118.26 98.28 117.68 118.00
  Q 117.56 122.11 117.62 161.49
  A 0.84 0.83 -0.0 0 1 116.78 162.32
  L 108.96 162.32
  A 0.80 0.80 0.0 0 1 108.16 161.53
  Q 108.09 140.05 108.15 123.41
  C 108.20 110.03 107.17 100.79 103.08 89.38
  A 0.31 0.31 0.0 0 0 102.52 89.33
  Q 95.24 101.66 95.12 116.25
  Q 94.88 144.51 95.05 161.61
  A 0.63 0.63 0.0 0 1 94.45 162.24
  Q 92.67 162.31 90.26 162.31
  Q 87.84 162.31 86.07 162.24
  A 0.63 0.63 0.0 0 1 85.47 161.61
  Q 85.64 144.51 85.40 116.25
  Q 85.28 101.66 78.00 89.33
  A 0.31 0.31 0.0 0 0 77.44 89.38
  C 73.35 100.79 72.32 110.03 72.37 123.41
  Q 72.43 140.05 72.36 161.53
  A 0.80 0.80 0.0 0 1 71.56 162.32
  L 63.74 162.32
  A 0.84 0.83 0.0 0 1 62.90 161.49
  Q 62.96 122.11 62.84 118.00
  Q 62.26 98.28 46.40 88.13
  Q 37.60 82.49 25.42 82.74
  A 0.24 0.24 0.0 0 1 25.17 82.50
  L 25.18 73.45
  A 0.24 0.24 0.0 0 1 25.41 73.21
  Q 51.32 73.02 65.39 93.71
  A 0.22 0.21 -51.9 0 0 65.77 93.66
  L 70.99 80.36
  A 1.13 1.13 0.0 0 0 70.77 79.18
  Q 52.72 59.78 25.53 60.05
  A 0.38 0.37 0.0 0 1 25.15 59.68
  L 25.15 51.04
  A 0.37 0.37 0.0 0 1 25.51 50.67
  Q 54.97 50.25 75.45 70.42
  A 0.51 0.51 0.0 0 0 76.22 70.36
  L 83.44 60.33
  A 0.45 0.45 0.0 0 0 83.38 59.73
  Q 59.22 37.14 25.45 37.50
  A 0.29 0.29 0.0 0 1 25.16 37.21
  L 25.16 28.27
  A 0.28 0.28 0.0 0 1 25.43 27.99
  Q 62.91 27.75 89.83 52.82
  Q 89.87 52.86 90.04 52.90
  Q 90.15 52.93 90.26 52.93
  Z
  M 90.30 92.12
  Q 90.39 92.12 90.47 92.07
  Q 90.62 91.98 90.63 91.95
  Q 93.79 84.77 97.83 78.99
  A 0.71 0.70 -43.2 0 0 97.86 78.24
  Q 94.48 72.37 90.44 67.38
  A 0.16 0.03 2.5 0 0 90.31 67.35
  Q 90.29 67.35 90.27 67.35
  Q 90.24 67.35 90.22 67.35
  A 0.16 0.03 -2.6 0 0 90.09 67.38
  Q 86.06 72.38 82.70 78.26
  A 0.71 0.70 43.1 0 0 82.73 79.01
  Q 86.79 84.78 89.97 91.95
  Q 89.98 91.98 90.13 92.07
  Q 90.21 92.12 90.30 92.12
  Z"
/>
<path fill="#71d34c" d="
  M 271.60 52.39
  Q 275.70 59.21 277.94 62.54
  A 0.34 0.34 0.0 0 0 278.55 62.35
  L 278.55 28.68
  A 0.56 0.56 0.0 0 1 279.11 28.12
  L 289.25 28.12
  A 0.62 0.62 0.0 0 1 289.87 28.74
  L 289.87 82.22
  A 0.49 0.49 0.0 0 1 289.38 82.71
  L 278.47 82.71
  A 2.44 2.44 0.0 0 1 276.40 81.55
  Q 268.79 69.16 262.33 58.43
  Q 258.23 51.61 255.99 48.28
  A 0.34 0.34 0.0 0 0 255.38 48.47
  L 255.38 82.14
  A 0.56 0.56 0.0 0 1 254.82 82.70
  L 244.68 82.70
  A 0.62 0.62 0.0 0 1 244.06 82.08
  L 244.06 28.60
  A 0.49 0.49 0.0 0 1 244.55 28.11
  L 255.46 28.11
  A 2.44 2.44 0.0 0 1 257.53 29.27
  Q 265.14 41.66 271.60 52.39
  Z"
/>
<rect fill="#71d34c" x="-6.05" y="-27.29" transform="translate(308.82,55.43) rotate(-0.1)" width="12.10" height="54.58" rx="0.54"/>
<path fill="#71d34c" d="
  M 473.51 82.77
  L 461.03 82.77
  A 1.48 1.46 74.4 0 1 459.77 82.05
  L 448.94 64.22
  A 2.03 2.02 -15.6 0 0 447.21 63.25
  L 443.19 63.25
  A 1.01 1.00 0.0 0 0 442.18 64.25
  L 442.18 82.06
  A 0.69 0.68 -0.0 0 1 441.49 82.74
  L 430.59 82.74
  A 0.52 0.52 0.0 0 1 430.07 82.22
  L 430.07 28.65
  A 0.43 0.43 0.0 0 1 430.50 28.22
  Q 445.05 28.04 452.99 28.22
  C 457.89 28.32 463.53 30.00 467.08 33.85
  C 475.24 42.69 472.65 56.54 461.46 61.52
  A 0.65 0.64 -27.9 0 0 461.17 62.46
  L 473.87 82.12
  A 0.42 0.42 0.0 0 1 473.51 82.77
  Z
  M 442.19 39.53
  L 442.21 52.63
  A 0.77 0.77 0.0 0 0 442.98 53.39
  L 452.44 53.38
  A 7.17 6.68 -0.1 0 0 459.60 46.68
  L 459.60 45.40
  A 7.17 6.68 -0.1 0 0 452.42 38.74
  L 442.96 38.75
  A 0.77 0.77 0.0 0 0 442.19 39.53
  Z"
/>
<path fill="#71d34c" d="
  M 209.70 71.98
  C 217.78 71.99 219.63 66.32 219.61 59.50
  Q 219.57 44.51 219.63 28.64
  A 0.46 0.45 0.0 0 1 220.09 28.19
  L 231.14 28.19
  A 0.61 0.60 -0.0 0 1 231.75 28.79
  Q 231.78 39.86 231.76 58.50
  Q 231.76 64.51 230.85 68.08
  C 228.23 78.38 220.00 83.59 209.69 83.58
  C 199.39 83.57 191.15 78.36 188.54 68.05
  Q 187.64 64.49 187.65 58.48
  Q 187.65 39.84 187.69 28.77
  A 0.61 0.60 0.1 0 1 188.30 28.17
  L 199.35 28.18
  A 0.46 0.45 0.1 0 1 199.81 28.63
  Q 199.85 44.50 199.80 59.49
  C 199.77 66.31 201.62 71.98 209.70 71.98
  Z"
/>
<path fill="#71d34c" d="
  M 348.91 68.21
  Q 348.99 68.21 349.06 68.18
  A 0.45 0.16 -75.7 0 0 349.24 67.92
  L 362.44 28.93
  A 1.14 1.13 9.2 0 1 363.52 28.16
  L 375.07 28.16
  A 0.48 0.48 0.0 0 1 375.52 28.80
  L 356.23 81.70
  A 1.60 1.60 0.0 0 1 354.84 82.74
  Q 354.48 82.76 348.91 82.76
  Q 343.34 82.76 342.99 82.74
  A 1.60 1.60 0.0 0 1 341.60 81.71
  L 322.27 28.82
  A 0.48 0.48 0.0 0 1 322.72 28.18
  L 334.27 28.17
  A 1.14 1.13 -9.3 0 1 335.35 28.94
  L 348.58 67.92
  A 0.45 0.16 75.6 0 0 348.75 68.18
  Q 348.82 68.21 348.91 68.21
  Z"
/>
<path fill="#71d34c" d="
  M 382.68 28.91
  A 0.73 0.73 0.0 0 1 383.40 28.19
  L 418.97 28.19
  A 0.55 0.55 0.0 0 1 419.53 28.74
  L 419.52 38.45
  A 0.43 0.42 -90.0 0 1 419.10 38.88
  L 395.18 38.86
  A 0.36 0.35 0.0 0 0 394.82 39.22
  L 394.78 49.55
  A 0.43 0.43 0.0 0 0 395.21 49.98
  L 414.89 50.01
  A 0.45 0.45 0.0 0 1 415.34 50.46
  L 415.33 59.67
  A 0.55 0.55 0.0 0 1 414.79 60.21
  L 395.19 60.24
  A 0.40 0.39 -90.0 0 0 394.80 60.64
  L 394.79 71.48
  A 0.54 0.54 0.0 0 0 395.33 72.01
  L 419.03 72.05
  A 0.47 0.47 0.0 0 1 419.49 72.52
  L 419.50 82.18
  A 0.55 0.55 0.0 0 1 418.95 82.73
  L 383.11 82.71
  A 0.43 0.43 0.0 0 1 382.68 82.28
  L 382.68 28.91
  Z"
/>
<rect fill="#71d34c" x="531.20" y="28.17" width="12.10" height="54.54" rx="0.66"/>
<path fill="#71d34c" d="
  M 556.16 28.85
  A 0.69 0.69 0.0 0 1 556.84 28.16
  L 577.12 28.09
  A 25.97 25.93 -0.2 0 1 603.18 53.93
  L 603.19 56.75
  A 25.97 25.93 -0.2 0 1 577.32 82.77
  L 557.04 82.84
  A 0.69 0.69 0.0 0 1 556.34 82.15
  L 556.16 28.85
  Z
  M 568.31 39.79
  L 568.37 71.23
  A 0.73 0.73 0.0 0 0 569.10 71.96
  L 576.33 71.95
  A 14.66 14.52 89.9 0 0 590.82 57.26
  L 590.82 53.68
  A 14.66 14.52 89.9 0 0 576.27 39.05
  L 569.04 39.06
  A 0.73 0.73 0.0 0 0 568.31 39.79
  Z"
/>
<path fill="#71d34c" d="
  M 627.39 28.18
  L 638.68 28.18
  A 0.64 0.64 0.0 0 1 639.28 28.59
  L 660.18 81.89
  A 0.64 0.64 0.0 0 1 659.58 82.76
  L 648.24 82.76
  A 0.64 0.64 0.0 0 1 647.64 82.35
  L 643.62 72.08
  A 0.64 0.64 0.0 0 0 643.02 71.67
  L 622.50 71.67
  A 0.64 0.64 0.0 0 0 621.90 72.08
  L 617.87 82.36
  A 0.64 0.64 0.0 0 1 617.27 82.77
  L 606.48 82.77
  A 0.64 0.64 0.0 0 1 605.88 81.90
  L 626.79 28.59
  A 0.64 0.64 0.0 0 1 627.39 28.18
  Z
  M 625.85 60.83
  A 0.30 0.30 0.0 0 0 626.13 61.23
  L 639.41 61.21
  A 0.30 0.30 0.0 0 0 639.69 60.81
  L 633.02 42.95
  A 0.30 0.30 0.0 0 0 632.46 42.95
  L 625.85 60.83
  Z"
/>
<path fill="#71d34c" d="
  M 667.43 28.70
  A 0.56 0.56 0.0 0 1 667.99 28.14
  L 688.39 28.18
  A 25.84 25.58 0.1 0 1 714.18 53.80
  L 714.18 57.26
  A 25.84 25.58 0.1 0 1 688.29 82.80
  L 667.89 82.76
  A 0.56 0.56 0.0 0 1 667.33 82.20
  L 667.43 28.70
  Z
  M 679.40 39.81
  L 679.46 71.17
  A 0.79 0.79 0.0 0 0 680.25 71.96
  L 687.32 71.95
  A 14.56 14.53 -0.1 0 0 701.85 57.39
  L 701.85 53.51
  A 14.56 14.53 -0.1 0 0 687.26 39.01
  L 680.19 39.02
  A 0.79 0.79 0.0 0 0 679.40 39.81
  Z"
/>
<path fill="#ffffff" d="
  M 442.19 39.53
  A 0.77 0.77 0.0 0 1 442.96 38.75
  L 452.42 38.74
  A 7.17 6.68 -0.1 0 1 459.60 45.40
  L 459.60 46.68
  A 7.17 6.68 -0.1 0 1 452.44 53.38
  L 442.98 53.39
  A 0.77 0.77 0.0 0 1 442.21 52.63
  L 442.19 39.53
  Z"
/>
<path fill="#ffffff" d="
  M 568.31 39.79
  A 0.73 0.73 0.0 0 1 569.04 39.06
  L 576.27 39.05
  A 14.66 14.52 89.9 0 1 590.82 53.68
  L 590.82 57.26
  A 14.66 14.52 89.9 0 1 576.33 71.95
  L 569.10 71.96
  A 0.73 0.73 0.0 0 1 568.37 71.23
  L 568.31 39.79
  Z"
/>
<path fill="#ffffff" d="
  M 679.40 39.81
  A 0.79 0.79 0.0 0 1 680.19 39.02
  L 687.26 39.01
  A 14.56 14.53 -0.1 0 1 701.85 53.51
  L 701.85 57.39
  A 14.56 14.53 -0.1 0 1 687.32 71.95
  L 680.25 71.96
  A 0.79 0.79 0.0 0 1 679.46 71.17
  L 679.40 39.81
  Z"
/>
<path fill="#ffffff" d="
  M 625.85 60.83
  L 632.46 42.95
  A 0.30 0.30 0.0 0 1 633.02 42.95
  L 639.69 60.81
  A 0.30 0.30 0.0 0 1 639.41 61.21
  L 626.13 61.23
  A 0.30 0.30 0.0 0 1 625.85 60.83
  Z"
/>
<path fill="#ffffff" d="
  M 90.30 92.12
  Q 90.21 92.12 90.13 92.07
  Q 89.98 91.98 89.97 91.95
  Q 86.79 84.78 82.73 79.01
  A 0.71 0.70 43.1 0 1 82.70 78.26
  Q 86.06 72.38 90.09 67.38
  A 0.16 0.03 -2.6 0 1 90.22 67.35
  Q 90.24 67.35 90.27 67.35
  Q 90.29 67.35 90.31 67.35
  A 0.16 0.03 2.5 0 1 90.44 67.38
  Q 94.48 72.37 97.86 78.24
  A 0.71 0.70 -43.2 0 1 97.83 78.99
  Q 93.79 84.77 90.63 91.95
  Q 90.62 91.98 90.47 92.07
  Q 90.39 92.12 90.30 92.12
  Z"
/>
<path fill="#06524b" d="
  M 306.86 133.91
  C 306.87 142.23 310.38 149.92 319.47 150.98
  C 326.16 151.75 331.00 147.96 333.61 142.39
  A 0.59 0.58 29.8 0 1 334.47 142.16
  L 343.57 148.59
  A 0.90 0.90 0.0 0 1 343.84 149.78
  C 336.50 162.92 321.80 166.76 308.72 160.31
  C 298.91 155.47 293.86 144.85 293.85 133.93
  C 293.84 123.01 298.87 112.37 308.67 107.51
  C 321.74 101.04 336.45 104.85 343.81 117.98
  A 0.90 0.90 0.0 0 1 343.54 119.17
  L 334.45 125.61
  A 0.59 0.58 -29.9 0 1 333.59 125.39
  C 330.97 119.82 326.13 116.04 319.44 116.83
  C 310.35 117.90 306.85 125.60 306.86 133.91
  Z"
/>
<path fill="#06524b" d="
  M 682.71 104.54
  C 699.59 104.55 710.24 117.69 710.23 133.93
  C 710.22 150.17 699.56 163.30 682.68 163.29
  C 665.79 163.28 655.14 150.14 655.15 133.90
  C 655.16 117.66 665.83 104.53 682.71 104.54
  Z
  M 668.07 133.91
  C 668.07 143.08 672.54 151.16 682.70 151.16
  C 692.86 151.15 697.33 143.07 697.32 133.90
  C 697.32 124.73 692.86 116.65 682.70 116.65
  C 672.53 116.66 668.07 124.74 668.07 133.91
  Z"
/>
<rect fill="#06524b" x="435.83" y="105.41" width="12.70" height="57.00" rx="0.48"/>
<path fill="#06524b" d="
  M 210.93 105.45
  Q 233.45 105.44 233.94 105.44
  A 0.39 0.38 89.9 0 1 234.32 105.83
  L 234.32 116.10
  A 0.72 0.72 0.0 0 1 233.60 116.82
  L 217.93 116.82
  A 0.63 0.62 0.0 0 0 217.30 117.44
  L 217.30 161.89
  A 0.48 0.48 0.0 0 1 216.83 162.37
  Q 213.93 162.42 210.95 162.42
  Q 207.97 162.42 205.07 162.38
  A 0.48 0.48 0.0 0 1 204.60 161.89
  L 204.57 117.44
  A 0.63 0.62 -0.0 0 0 203.94 116.83
  L 188.27 116.84
  A 0.72 0.72 0.0 0 1 187.54 116.12
  L 187.54 105.85
  A 0.39 0.38 -89.9 0 1 187.92 105.46
  Q 188.40 105.45 210.93 105.45
  Z"
/>
<path fill="#06524b" d="
  M 245.75 106.20
  A 0.76 0.76 0.0 0 1 246.51 105.44
  L 283.66 105.43
  A 0.58 0.58 0.0 0 1 284.24 106.01
  L 284.24 116.15
  A 0.45 0.44 -90.0 0 1 283.80 116.60
  L 258.82 116.59
  A 0.38 0.37 0.0 0 0 258.44 116.96
  L 258.40 127.75
  A 0.45 0.45 0.0 0 0 258.85 128.20
  L 279.41 128.22
  A 0.47 0.47 0.0 0 1 279.88 128.69
  L 279.87 138.32
  A 0.57 0.57 0.0 0 1 279.30 138.89
  L 258.84 138.92
  A 0.42 0.41 -90.0 0 0 258.43 139.34
  L 258.42 150.66
  A 0.56 0.56 0.0 0 0 258.98 151.22
  L 283.73 151.25
  A 0.49 0.49 0.0 0 1 284.22 151.74
  L 284.23 161.83
  A 0.57 0.57 0.0 0 1 283.66 162.40
  L 246.22 162.39
  A 0.45 0.45 0.0 0 1 245.77 161.94
  L 245.75 106.20
  Z"
/>
<path fill="#06524b" d="
  M 387.84 140.26
  Q 388.04 140.26 388.10 140.10
  Q 398.37 112.71 400.79 106.06
  A 0.97 0.95 -80.0 0 1 401.69 105.42
  L 414.76 105.42
  A 0.43 0.42 86.1 0 1 415.18 105.79
  L 422.55 161.92
  A 0.46 0.46 0.0 0 1 422.09 162.44
  L 410.96 162.44
  A 0.46 0.45 86.4 0 1 410.51 162.04
  L 405.59 124.52
  A 0.14 0.14 0.0 0 0 405.32 124.49
  L 391.65 161.97
  A 1.28 1.28 0.0 0 1 390.46 162.82
  Q 389.72 162.83 387.82 162.83
  Q 385.93 162.83 385.19 162.82
  A 1.28 1.28 0.0 0 1 384.00 161.97
  L 370.37 124.47
  A 0.14 0.14 0.0 0 0 370.10 124.50
  L 365.14 162.02
  A 0.46 0.45 -86.3 0 1 364.69 162.41
  L 353.56 162.40
  A 0.46 0.46 0.0 0 1 353.10 161.88
  L 360.53 105.76
  A 0.43 0.42 -86.1 0 1 360.95 105.39
  L 374.02 105.40
  A 0.97 0.95 80.0 0 1 374.92 106.05
  Q 377.33 112.70 387.57 140.10
  Q 387.63 140.26 387.84 140.26
  Z"
/>
<path fill="#06524b" d="
  M 500.92 162.40
  L 465.23 162.40
  A 0.41 0.41 0.0 0 1 464.82 161.99
  L 464.82 105.84
  A 0.41 0.41 0.0 0 1 465.23 105.43
  L 477.12 105.43
  A 0.41 0.41 0.0 0 1 477.53 105.84
  L 477.53 150.60
  A 0.41 0.41 0.0 0 0 477.94 151.01
  L 500.92 151.01
  A 0.41 0.41 0.0 0 1 501.33 151.42
  L 501.33 161.99
  A 0.41 0.41 0.0 0 1 500.92 162.40
  Z"
/>
<path fill="#06524b" d="
  M 551.21 105.92
  L 551.21 116.09
  A 0.50 0.50 0.0 0 1 550.71 116.59
  L 525.87 116.59
  A 0.50 0.50 0.0 0 0 525.37 117.09
  L 525.37 127.72
  A 0.50 0.50 0.0 0 0 525.87 128.22
  L 546.35 128.22
  A 0.50 0.50 0.0 0 1 546.85 128.72
  L 546.85 138.41
  A 0.50 0.50 0.0 0 1 546.35 138.91
  L 525.89 138.91
  A 0.50 0.50 0.0 0 0 525.39 139.41
  L 525.39 150.75
  A 0.50 0.50 0.0 0 0 525.89 151.25
  L 550.72 151.25
  A 0.50 0.50 0.0 0 1 551.22 151.75
  L 551.22 161.92
  A 0.50 0.50 0.0 0 1 550.72 162.42
  L 513.22 162.42
  A 0.50 0.50 0.0 0 1 512.72 161.92
  L 512.72 105.92
  A 0.50 0.50 0.0 0 1 513.22 105.42
  L 550.71 105.42
  A 0.50 0.50 0.0 0 1 551.21 105.92
  Z"
/>
<path fill="#06524b" d="
  M 601.34 105.42
  L 612.54 105.42
  A 0.34 0.34 0.0 0 1 612.88 105.76
  L 612.88 162.08
  A 0.34 0.34 0.0 0 1 612.54 162.42
  L 599.79 162.42
  A 0.34 0.34 0.0 0 1 599.50 162.26
  L 577.48 125.99
  A 0.34 0.34 0.0 0 0 576.85 126.17
  L 576.85 162.08
  A 0.34 0.34 0.0 0 1 576.51 162.42
  L 565.40 162.42
  A 0.34 0.34 0.0 0 1 565.06 162.08
  L 565.06 105.76
  A 0.34 0.34 0.0 0 1 565.40 105.42
  L 578.31 105.42
  A 0.34 0.34 0.0 0 1 578.60 105.58
  L 600.37 141.44
  A 0.34 0.34 0.0 0 0 601.00 141.26
  L 601.00 105.76
  A 0.34 0.34 0.0 0 1 601.34 105.42
  Z"
/>
<rect fill="#06524b" x="629.10" y="105.40" width="12.70" height="57.02" rx="0.46"/>
<path fill="#ffffff" d="
  M 682.70 116.65
  C 692.86 116.65 697.32 124.73 697.32 133.90
  C 697.33 143.07 692.86 151.15 682.70 151.16
  C 672.54 151.16 668.07 143.08 668.07 133.91
  C 668.07 124.74 672.53 116.66 682.70 116.65
  Z"
/>
</svg>
